<svg width="189" height="102" viewBox="0 0 189 102" fill="none" xmlns="http://www.w3.org/2000/svg">
<path d="M39.9181 75.4634C32.5862 75.4634 26.8835 81.2682 26.8835 88.7317C26.8835 96.1951 32.5862 102 39.9181 102C47.25 102 52.9526 96.1951 52.9526 88.7317C52.9526 81.2682 47.25 75.4634 39.9181 75.4634ZM117.31 0H110.793V16.1707H135.233L117.31 0ZM0.814581 91.2195H17.1077C17.1077 91.2195 17.9224 66.3414 41.5474 66.3414C59.0625 66.3414 61.9138 91.2195 61.9138 91.2195H102.647V0H0L0.814581 91.2195ZM154.785 75.4634C147.453 75.4634 141.75 81.2682 141.75 88.7317C141.75 96.1951 147.453 102 154.785 102C162.117 102 167.819 96.1951 167.819 88.7317C167.819 81.2682 161.709 75.4634 154.785 75.4634ZM139.306 20.7317H110.793V91.2195H135.233C135.233 91.2195 131.974 70.4878 155.599 70.4878C173.522 70.4878 173.114 91.2195 173.114 91.2195H188.186L189 60.1219L139.306 20.7317ZM135.233 74.6341H118.94V66.3414H135.233V74.6341ZM133.603 59.7073L117.31 49.7561V26.5366H133.603L175.966 59.7073H133.603Z" fill="white" fill-opacity="0.4"/>
</svg>
